<svg xmlns="http://www.w3.org/2000/svg" width="161.851" height="55.323" viewBox="0 0 161.851 55.323">
  <g id="方案4" transform="translate(-23.149 -17.597)">
    <g id="方案图标" transform="translate(23.149 19.677)">
      <path id="路径_379" data-name="路径 379" d="M195.237,229.753h38.83a3.344,3.344,0,0,0,3.237-3.444V192H192v34.309A3.343,3.343,0,0,0,195.237,229.753Z" transform="translate(-182.037 -192)" fill="#ccc"/>
      <path id="路径_380" data-name="路径 380" d="M131.221,293.753h38.644a3.337,3.337,0,0,0,3.221-3.444V256H128v34.309A3.337,3.337,0,0,0,131.221,293.753Z" transform="translate(-121.457 -251.344)" fill="#fff"/>
      <path id="路径_381" data-name="路径 381" d="M124.188,332.564v25.11a4.247,4.247,0,0,1-4.3,4.185H68.3a4.247,4.247,0,0,1-4.3-4.185V323.985a4.247,4.247,0,0,1,4.3-4.185H91.414a4.3,4.3,0,0,1,3.863,2.347l3.124,6.232h21.489A4.247,4.247,0,0,1,124.188,332.564Z" transform="translate(-64 -308.616)" fill="#1d64ff"/>
      <path id="路径_382" data-name="路径 382" d="M110.555,333.214a30.418,30.418,0,0,0-.3-4.257h-9.005l-3.382-6.651a4.674,4.674,0,0,0-4.183-2.506H68.655A4.568,4.568,0,0,0,64,324.267v35.958a4.157,4.157,0,0,0,.218,1.347,33.687,33.687,0,0,0,13.748,2.91C95.963,364.482,110.555,350.481,110.555,333.214Z" transform="translate(-64 -311.457)" fill="#fff" opacity="0.18"/>
    </g>
    <text id="方案" transform="translate(93 47.597)" fill="gray" font-size="27" font-family="PingFang SC Medium, PingFang SC"><tspan x="0" y="0">方案</tspan></text>
    <text id="program" transform="translate(93 67.597)" fill="gray" font-size="16" font-family="SegoeUI-Bold, Segoe UI" font-weight="700"><tspan x="0" y="0">PROGRAM</tspan></text>
    <text id="_04" data-name="04" transform="translate(152 49.597)" fill="gray" font-size="30" font-family="SegoeUI, Segoe UI"><tspan x="0" y="0">04</tspan></text>
  </g>
</svg>
