<svg xmlns="http://www.w3.org/2000/svg" width="32" height="32" viewBox="0 0 32 32"><g transform="translate(-1235 -1435)"><rect width="32" height="32" rx="6" transform="translate(1235 1435)" fill="#5dbd6a"/><path d="M91.413,120.809a5.624,5.624,0,0,1,.623.038c-.56-2.606-3.346-4.542-6.526-4.542-3.555,0-6.468,2.423-6.468,5.5a5.3,5.3,0,0,0,2.588,4.366l-.647,1.946,2.261-1.134a11.06,11.06,0,0,0,2.266.325c.2,0,.4-.01.6-.026a4.818,4.818,0,0,1-.2-1.355A5.3,5.3,0,0,1,91.413,120.809Zm-3.478-1.754a.808.808,0,1,1,0,1.617.822.822,0,1,1,0-1.617Zm-4.527,1.617a.822.822,0,1,1,0-1.617.808.808,0,0,1,0,1.617Zm13.907,5.178c0-2.586-2.588-4.693-5.494-4.693-3.077,0-5.5,2.108-5.5,4.693s2.424,4.693,5.5,4.693a8.122,8.122,0,0,0,1.941-.325l1.774.971-.486-1.616A4.9,4.9,0,0,0,97.316,125.85Zm-7.277-.809a.647.647,0,0,1,0-1.294.663.663,0,1,1,0,1.294Zm3.558,0a.647.647,0,0,1,0-1.294.663.663,0,1,1,0,1.294Z" transform="translate(1162.829 1327.365)" fill="#fff"/></g></svg>