<svg xmlns="http://www.w3.org/2000/svg" width="32" height="32" viewBox="0 0 32 32"><g transform="translate(-1275 -1435)"><rect width="32" height="32" rx="6" transform="translate(1275 1435)" fill="#eeca4b"/><g transform="translate(663.689 899.035)"><path d="M136.509,137.432a5.305,5.305,0,0,1-1.845.492A6.87,6.87,0,0,0,136.942,135a7.433,7.433,0,0,0,.049-4.647.376.376,0,0,0-.309-.262.367.367,0,0,0-.357.156,7.661,7.661,0,0,1-4.8,3.312,6.931,6.931,0,0,0,1.026-3.662.374.374,0,0,0-.254-.317.364.364,0,0,0-.119-.019.375.375,0,0,0-.268.112,6.915,6.915,0,0,1-5.389,2.439,7.31,7.31,0,0,0-5.44,2.627,7.2,7.2,0,0,0-1.663,5.733,7.318,7.318,0,0,0,6.19,6.207,7.831,7.831,0,0,0,1.22.1,7.309,7.309,0,0,0,6.45-3.874,2.35,2.35,0,0,1,.7-.754,7.62,7.62,0,0,0,2.847-3.488,4.83,4.83,0,0,0,.186-.646l.039-.16a.365.365,0,0,0,.011-.092.374.374,0,0,0-.375-.374.378.378,0,0,0-.184.048Zm-16.32,2.483c.314.989,2.247,1.32,2.247,1.32C120.824,142.969,120.189,139.916,120.189,139.916Zm4.667,1.32s3.944-.456,5.516-1.815C130.373,139.421,128.084,144.64,124.857,141.235Z" transform="translate(498.971 413.406)"/><path d="M136.509,137.432a5.305,5.305,0,0,1-1.845.492A6.87,6.87,0,0,0,136.942,135a7.433,7.433,0,0,0,.049-4.647.376.376,0,0,0-.309-.262.367.367,0,0,0-.357.156,7.661,7.661,0,0,1-4.8,3.312,6.931,6.931,0,0,0,1.026-3.662.374.374,0,0,0-.254-.317.364.364,0,0,0-.119-.019.375.375,0,0,0-.268.112,6.915,6.915,0,0,1-5.389,2.439,7.31,7.31,0,0,0-5.44,2.627,7.2,7.2,0,0,0-1.663,5.733,7.318,7.318,0,0,0,6.19,6.207,7.831,7.831,0,0,0,1.22.1,7.309,7.309,0,0,0,6.45-3.874,2.35,2.35,0,0,1,.7-.754,7.62,7.62,0,0,0,2.847-3.488,4.83,4.83,0,0,0,.186-.646l.039-.16a.365.365,0,0,0,.011-.092.374.374,0,0,0-.375-.374.378.378,0,0,0-.184.048Zm-16.32,2.483c.314.989,2.247,1.32,2.247,1.32C120.824,142.969,120.189,139.916,120.189,139.916Zm4.667,1.32s3.944-.456,5.516-1.815C130.373,139.421,128.084,144.64,124.857,141.235Z" transform="translate(498.971 413.406)"/></g></g></svg>