<svg id="智能参考Color" xmlns="http://www.w3.org/2000/svg" width="147.231" height="152.065" viewBox="0 0 147.231 152.065">
  <path id="路径_78" data-name="路径 78" d="M195.252,63.029V51.145H173.105V29.594H161.221V51.145H82.053V29.594H70.168V51.145H48.021V63.029H70.168V73.277H48.021V85.161H70.168v40.93H48.036v11.884H70.168v10.263H48.021v11.884H70.168v21.536H82.053V160.123h79.168v21.536h11.884V160.123h22.147V148.239H173.105V137.976h22.147V126.091H173.105V85.161h22.147V73.277H173.105V63.029Zm-113.2,61.609V85.161H114.57Zm79.168,23.6H82.053v-4.895l57.709-70.067H82.053V63.029h79.168v3.441l-58.9,71.5h58.9Zm-33.726-22.147,33.726-40.93v40.93Z" transform="translate(-48.021 -29.594)" fill="#4affff"/>
</svg>
