<svg id="PSD模版商城_Color" xmlns="http://www.w3.org/2000/svg" width="46" height="48" viewBox="0 0 46 48">
  <g id="PSD模版商城_Color-2" data-name="PSD模版商城_Color" transform="translate(0)">
    <path id="Purple" d="M12.9,3.8,39.6,0l3.753,27.055A15.146,15.146,0,0,1,30.605,44.2L3.9,48,.148,20.945A15.146,15.146,0,0,1,12.9,3.8Z" transform="translate(0)" fill="#b28cff"/>
    <g id="Blue" transform="translate(3.922 5.731)" fill="#59deff" stroke-miterlimit="10">
      <path d="M 35.63707733154297 41.76865768432617 L 0.4999992251396179 41.76865768432617 L 0.4999992251396179 15.09594917297363 C 0.4999992251396179 11.19679927825928 2.011429309844971 7.531158924102783 4.755859375 4.774249076843262 C 7.499699115753174 2.017958879470825 11.14762878417969 0.4999988377094269 15.02768898010254 0.4999988377094269 L 41.57751846313477 0.4999988377094269 L 41.57751846313477 35.79896926879883 C 41.57751846313477 39.09066772460938 38.91265106201172 41.76865768432617 35.63707733154297 41.76865768432617 Z" stroke="none"/>
      <path d="M 15.02768898010254 1 C 11.28160858154297 1 7.759517669677734 2.465667724609375 5.110210418701172 5.127010345458984 C 2.459697723388672 7.789558410644531 1 11.32992935180664 1 15.09594917297363 L 1 41.26865768432617 L 35.63707733154297 41.26865768432617 C 38.63694763183594 41.26865768432617 41.07751846313477 38.81496810913086 41.07751846313477 35.79896926879883 L 41.07751846313477 1 L 15.02768898010254 1 M 15.02768898010254 0 L 42.07751846313477 0 L 42.07751846313477 35.79896926879883 C 42.07751846313477 39.3720703125 39.19403076171875 42.26865768432617 35.63707733154297 42.26865768432617 L 0 42.26865768432617 L 0 15.09594917297363 C 0 6.758689880371094 6.728118896484375 0 15.02768898010254 0 Z" stroke="none" fill="#1e56ff"/>
    </g>
    <path id="路径" d="M36.441,0l2.992,21.477A15.075,15.075,0,0,1,26.7,38.527L.3,42.269H.014L0,42.166V15.1A15.031,15.031,0,0,1,14.966,0Z" transform="translate(3.922 5.731)" fill="#1e56ff"/>
    <path id="PS" d="M19.841,0A4.812,4.812,0,0,1,24.6,4.847a4.811,4.811,0,0,1-4.763,4.847h-13a1.227,1.227,0,0,0,0,2.454H19.193v.008h.648a4.848,4.848,0,0,1,0,9.694H.255V18.23H17.766a1.227,1.227,0,0,0,0-2.453H6.056v-.008H4.763a4.848,4.848,0,0,1,0-9.695h13a1.227,1.227,0,0,0,0-2.453H.255V0Z" transform="translate(11.411 15.761)" fill="#fff"/>
  </g>
</svg>
