<?xml version="1.0" standalone="no"?><!DOCTYPE svg PUBLIC "-//W3C//DTD SVG 1.1//EN" "http://www.w3.org/Graphics/SVG/1.1/DTD/svg11.dtd"><svg t="1596708436785" class="icon" viewBox="0 0 1024 1024" version="1.1" xmlns="http://www.w3.org/2000/svg" p-id="3970" xmlns:xlink="http://www.w3.org/1999/xlink" width="200" height="200"><defs><style type="text/css"></style></defs><path d="M523.835089 0c-8.130982 12.686685-7.372788 20.052937-5.712603 24.203398a43.936062 43.936062 0 0 0 10.497071 11.372917c19.242453 30.61537-20.118298 48.981977-20.118298 48.981977s-3.496845-1.751691 11.372917-18.366608-27.99437-37.615596-27.99437-37.615596l3.255008-28.451901C252.787102 8.706164 58.898475 201.117619 58.898475 437.942277c0 186.313219 120.709789 346.383758 290.401554 409.366188a189.679341 189.679341 0 0 1 102.343181 79.597347c10.497072 17.497298 30.61537 97.094645 60.354895 97.094646s48.988513-80.473192 60.354894-97.094646a190.561722 190.561722 0 0 1 102.343181-79.597347c169.691766-63.858276 290.401554-223.05297 290.401554-409.366188C965.104271 199.490116 768.529282 6.078628 523.841625 0z" fill="#FF0000" p-id="3971"></path><path d="M751.665991 294.486654a169.299596 169.299596 0 0 0-59.479049-83.970038 212.863098 212.863098 0 0 0-47.230287-27.118524 659.256628 659.256628 0 0 0-70.851966-20.118298 12.072286 12.072286 0 0 0-2.627536-3.496846 111.049345 111.049345 0 0 0-48.981977-42.857596c-11.372917-6.124381-15.745608-2.627536-19.242453 10.490536s-2.621 26.242679-10.497071 38.491442c-8.745381 1.751691-55.106358 13.993917-69.976121 19.242452a339.207055 339.207055 0 0 0-164.449766 129.45517 248.583208 248.583208 0 0 0-18.366607 34.98806 186.437406 186.437406 0 0 0-7.869536 24.497525 207.085133 207.085133 0 0 0-6.993691 53.354668c0.869309 20.994143 9.61469 34.98806 28.857143 41.988287 14.869762 5.248536 68.230966 19.242453 79.603884 17.490762s13.118072-6.117845 7.869535-16.614917a135.004369 135.004369 0 0 1-16.621453-40.236596 248.59628 248.59628 0 0 1-3.496845-56.864585 59.067271 59.067271 0 0 1 1.751691-12.242227c0.875845-2.621 2.621-13.118072 3.496845-15.745607 27.118525-67.348585 80.473192-103.21249 146.952468-123.337325 6.124381-1.745155 6.99369 0.882381 6.124381 6.130918-3.503381 13.118072-32.36706 137.324705-37.615596 159.194694-12.242226 48.981977-21.869989 97.970491-31.491215 147.828313-2.621 14.869762-3.496845 27.987834 3.503381 41.112441a255.609579 255.609579 0 0 0 18.366607 27.987834 171.920596 171.920596 0 0 0 39.360751 40.236596 11.889274 11.889274 0 0 0 13.124608 2.627537c5.248536-2.627536 5.248536-7.000227 5.248536-12.248763a929.76865 929.76865 0 0 1 5.248536-110.212717 1261.609454 1261.609454 0 0 1 27.111988-160.946385c6.99369-29.739524 33.242906-141.703932 33.242906-142.579777a186.280538 186.280538 0 0 1 49.857823 6.124381c30.61537 9.621226 57.727358 25.360298 64.727584 61.23074a20.007183 20.007183 0 0 0 20.118299 16.614917c14.869762 1.751691 29.739524 4.379227 44.609286 6.124381 16.621453 4.379227 21.869989-0.875845 16.621453-16.621453z" fill="#FFFFFF" p-id="3972"></path><path d="M699.187169 470.309337a126.062903 126.062903 0 0 0-37.609061-27.118524c-4.379227-1.751691-9.621226-3.496845-14.869762-5.248536a196.764537 196.764537 0 0 0-19.248989-4.379227 296.362532 296.362532 0 0 0 31.491215-18.366607c37.615596-26.236143 49.857823-49.857823 51.609514-55.099823a23.438667 23.438667 0 0 0-3.496846-22.745834 41.13205 41.13205 0 0 0-41.112441-10.497072 13.399126 13.399126 0 0 0-6.124381 4.379227c-4.379227 4.366154-16.621453 26.236143-94.46711 74.342275-13.124608 7.876072-51.609513 24.497525-42.864132 53.361204 2.627536 8.745381 12.248762 8.745381 20.118298 9.621226a170.822521 170.822521 0 0 1 79.597347 25.360298 148.717231 148.717231 0 0 1 19.248989 18.373144c3.496845 3.503381 6.99369 7.876072 11.372917 13.124608a113.650737 113.650737 0 0 1 15.739072 34.112215 85.591005 85.591005 0 0 1 1.75169 36.733214 113.533086 113.533086 0 0 1-39.36075 72.603657 236.739687 236.739687 0 0 1-21.869989 14.869762 72.289921 72.289921 0 0 1-19.242453 6.993691 170.646045 170.646045 0 0 1-59.479049 1.758227 85.427601 85.427601 0 0 1-20.118298-5.248536l-7.876072-2.627536c-0.875845-0.875845-2.621-0.875845-3.496845-1.751691a210.464327 210.464327 0 0 1-76.976347-56.851513 363.508495 363.508495 0 0 1-52.485359-80.473192c-2.614464-5.248536-3.496845-13.124608-11.372917-13.124608s-11.366381 6.124381-13.987381 12.248762c-20.118298 36.733215-14.000453 92.715419 13.118072 126.83417a299.676364 299.676364 0 0 0 28.863679 28.863679c1.751691 1.751691 21.869989 15.745608 26.242679 18.366608a307.526292 307.526292 0 0 0 60.354895 26.242679 274.453326 274.453326 0 0 0 112.840253 7.876072 142.122246 142.122246 0 0 0 16.614916-3.503381 292.872223 292.872223 0 0 0 46.360978-16.614917c6.99369-3.503381 14.000453-7.000227 20.994143-11.372917a133.860541 133.860541 0 0 0 13.993917-11.372917c5.248536-4.372691 11.372917-10.497072 14.000453-13.118072a147.815241 147.815241 0 0 0 34.98806-58.60974c20.994143-63.851739 10.497072-119.833943-33.242905-167.940075z" fill="#FFFFFF" p-id="3973"></path></svg>