<svg xmlns="http://www.w3.org/2000/svg" width="142.012" height="39.065" viewBox="0 0 142.012 39.065">
  <g id="组_285" data-name="组 285" transform="translate(-410 -23)">
    <g id="智能参考Color" transform="translate(410 23)">
      <path id="路径_78" data-name="路径 78" d="M84.252,38.183V35.13H78.8V29.594H75.878V35.13H56.4V29.594H53.471V35.13h-5.45v3.053h5.45v2.633h-5.45v3.053h5.45V54.384H48.025v3.053h5.446v2.637h-5.45v3.053h5.45v5.532H56.4V63.126H75.878v5.532H78.8V63.126h5.45V60.073H78.8V57.437h5.45V54.384H78.8V43.869h5.45V40.816H78.8V38.183ZM56.4,54.01V43.869h8Zm19.482,6.063H56.4V58.816l14.2-18H56.4V38.183H75.878v.884L61.383,57.437H75.878Zm-8.3-5.69,8.3-10.515V54.384Z" transform="translate(-48.021 -29.594)" fill="#4affff"/>
    </g>
    <g id="LOGO_Text" data-name="LOGO+Text" transform="translate(455 27)">
      <g id="组_56" data-name="组 56" transform="translate(0 0)">
        <path id="路径_81" data-name="路径 81" d="M68.664,39.231h11.6V37.32h-13.5v6.373H78.384v.144A3.078,3.078,0,0,1,75.3,46.912H66.917V48.8H75.3a4.975,4.975,0,0,0,4.979-4.96V41.809H68.664Z" transform="translate(15.604 -27.603)" fill="#4affff"/>
        <path id="路径_82" data-name="路径 82" d="M84.781,43.394H76.623V40.711h9.392v-1.9H76.623V36.578H74.716v2.234H67.231v1.9h7.485v2.683H66.285v1.9h4.2l-4.2,5.243,1.49,1.185,5.147-6.427H85.776l1.389-1.984L85.6,42.223Z" transform="translate(9.847 -36.578)" fill="#4affff"/>
        <rect id="矩形_61" data-name="矩形 61" width="1.902" height="5.076" transform="translate(6.269 9.983) rotate(-82.365)" fill="#4affff"/>
        <path id="路径_83" data-name="路径 83" d="M65.193,36.662h-3.77v9.592h8.118V40.981A4.342,4.342,0,0,0,65.193,36.662ZM67.65,44.37H63.315V38.546h1.878a2.445,2.445,0,0,1,2.456,2.434Z" transform="translate(-49.154 -35.556)" fill="#4affff"/>
        <path id="路径_84" data-name="路径 84" d="M60.816,37.487a.235.235,0,0,0-.236.236v8.82a.235.235,0,0,0,.236.236h18.1a.235.235,0,0,0,.236-.236v-8.82a.235.235,0,0,0-.236-.236Zm16.446,7.171a.235.235,0,0,1-.236.236H62.708a.235.235,0,0,1-.236-.236v-1.57H77.263Zm0-3.481H62.472v-1.57a.235.235,0,0,1,.236-.236H77.026a.235.235,0,0,1,.236.236Z" transform="translate(-59.385 -25.585)" fill="#4affff"/>
        <path id="路径_85" data-name="路径 85" d="M67.123,43.553h4.913v-1.9H67.674V39.562h4.361v-1.9H62.394V36.578h-1.9v2.984H65.77v1.387a6.1,6.1,0,0,1-.079.707h-5.2v1.9h4.519a5.253,5.253,0,0,1-4.519,2.591v1.871A7.165,7.165,0,0,0,67.123,43.553Z" transform="translate(-60.489 -36.572)" fill="#4affff"/>
        <path id="路径_86" data-name="路径 86" d="M65.223,42.587v-.942a14.312,14.312,0,0,0,6.66-2.369l-1.143-1.5a12.066,12.066,0,0,1-5.517,1.963V36.58H63.331v6.007a4.121,4.121,0,0,0,4.125,4.1H72.08V44.8H67.456A2.224,2.224,0,0,1,65.223,42.587Z" transform="translate(-25.998 -36.548)" fill="#4affff"/>
        <path id="路径_87" data-name="路径 87" d="M62.446,50.151h1.892V45.793h6.542v.131c0,2.015-.749,2.342-2.548,2.342v1.884c1.209,0,4.44,0,4.44-4.227V37.208H62.446Zm1.892-11.058h6.542v1.453H64.338Zm0,3.363h6.542V43.9H64.338Z" transform="translate(-36.739 -28.957)" fill="#4affff"/>
        <path id="路径_88" data-name="路径 88" d="M65.223,43.4v-.942a14.2,14.2,0,0,0,6.66-2.356L70.74,38.6a12.066,12.066,0,0,1-5.517,1.963V37.406H63.331V43.4a4.124,4.124,0,0,0,4.125,4.109H72.08V45.624H67.456A2.227,2.227,0,0,1,65.223,43.4Z" transform="translate(-25.998 -26.564)" fill="#4affff"/>
        <path id="路径_89" data-name="路径 89" d="M71.113,38.763l.289,1.714c0,1.243-.512,1.492-1.392,1.492l-5.36.013a.226.226,0,0,1-.21-.314l1.852-4.724.145-.366H64.571a.23.23,0,0,0-.223.144l-1.8,4.58A1.862,1.862,0,0,0,64.3,43.841H70.01c2.089,0,3.284-1.23,3.271-3.52l-.3-1.858Z" transform="translate(-37.025 -36.572)" fill="#4affff"/>
        <path id="路径_90" data-name="路径 90" d="M85.4,45.215v-1.9H75.019a11.556,11.556,0,0,0,.972-1.23h4.821a3.627,3.627,0,0,0,1.2-.183,2.9,2.9,0,0,0,1.8-3.625l-.236-.785-1.8.537.223.785a1.022,1.022,0,0,1-.552,1.3,1.989,1.989,0,0,1-.63.1H68.858l2.1-3.128.355-.51H69.042l-2.391,3.546a1.262,1.262,0,0,0,.026,1.256,1.583,1.583,0,0,0,1.353.707h5.556a13.9,13.9,0,0,1-1.248,1.23H64.72v1.9h5.136a38.826,38.826,0,0,1-5.53,3.049l.788,1.7a34.508,34.508,0,0,0,7.895-4.75h4.4L84.871,50.2l1.051-1.557L80.8,45.215Z" transform="translate(-13.923 -36.572)" fill="#4affff"/>
        <path id="路径_91" data-name="路径 91" d="M73.279,38.357l-1.642-1.073c-.039.026-3.967,3.049-6.988,3.9l.5,1.806A26.558,26.558,0,0,0,72.491,39C72.662,38.867,73.253,38.383,73.279,38.357Z" transform="translate(-10.003 -28.039)" fill="#4affff"/>
        <path id="路径_92" data-name="路径 92" d="M65,44.6a21.235,21.235,0,0,0,10.863-6.125l-1.589-1.06a19.52,19.52,0,0,1-9.642,5.339Z" transform="translate(-10.173 -26.455)" fill="#4affff"/>
        <path id="路径_93" data-name="路径 93" d="M77.488,37.539c-1.09,1.06-6.305,5.837-12.86,6.753l.263,1.858c8-1.125,13.937-7.263,14.187-7.525l-.052-.052Z" transform="translate(-10.258 -24.957)" fill="#4affff"/>
      </g>
      <g id="组_57" data-name="组 57" transform="translate(0 25.649)">
        <rect id="矩形_62" data-name="矩形 62" width="0.923" height="6.708" transform="translate(0 0.403)" fill="#4affff"/>
        <path id="路径_94" data-name="路径 94" d="M65.034,36.464h.894V33.331a1.982,1.982,0,0,0-.51-1.446,1.879,1.879,0,0,0-1.4-.523,1.966,1.966,0,0,0-1.932,1.1V31.392h-.9v5.073h.9V33.75a1.7,1.7,0,0,1,.485-1.107,1.548,1.548,0,0,1,1.111-.436,1.251,1.251,0,0,1,1.357,1.363Z" transform="translate(-58.542 -29.351)" fill="#4affff"/>
        <path id="路径_95" data-name="路径 95" d="M63.472,35.891a1.424,1.424,0,0,0,.376,1.085,1.348,1.348,0,0,0,.981.361,2.227,2.227,0,0,0,1.191-.371l-.239-.692a1.637,1.637,0,0,1-.789.242.573.573,0,0,1-.463-.184.949.949,0,0,1-.152-.6V33.083h1.556V32.4H64.376V31.042h-.9V32.4h-.724v.681h.724Z" transform="translate(-54.446 -30.188)" fill="#4affff"/>
        <path id="路径_96" data-name="路径 96" d="M65.005,36.172a2.739,2.739,0,0,0,1.335.321,2.993,2.993,0,0,0,1.173-.224,2.493,2.493,0,0,0,.9-.624l-.492-.5a2.04,2.04,0,0,1-.677.458,2.107,2.107,0,0,1-.843.166,1.674,1.674,0,0,1-1.719-1.485h4.021c0-.065.011-.162.011-.292a2.843,2.843,0,0,0-.608-1.929,2.256,2.256,0,0,0-1.788-.7A2.622,2.622,0,0,0,65,31.695a2.357,2.357,0,0,0-.9.909,2.909,2.909,0,0,0,0,2.661A2.272,2.272,0,0,0,65.005,36.172Zm.2-3.666a1.628,1.628,0,0,1,1.122-.4,1.575,1.575,0,0,1,1.118.4,1.552,1.552,0,0,1,.46,1.089H64.676A1.684,1.684,0,0,1,65.208,32.506Z" transform="translate(-51.738 -29.351)" fill="#4affff"/>
        <rect id="矩形_63" data-name="矩形 63" width="0.896" height="7.112" transform="translate(18.197 0)" fill="#4affff"/>
        <rect id="矩形_64" data-name="矩形 64" width="0.896" height="7.112" transform="translate(20.747 0)" fill="#4affff"/>
        <rect id="矩形_65" data-name="矩形 65" width="0.894" height="5.071" transform="translate(23.286 2.04)" fill="#4affff"/>
        <path id="路径_97" data-name="路径 97" d="M67.414,31.961a.533.533,0,0,0,.4-.162.582.582,0,0,0,.159-.415.567.567,0,0,0-.159-.411.533.533,0,0,0-.4-.162.541.541,0,0,0-.4.162.565.565,0,0,0-.156.411.579.579,0,0,0,.156.415A.541.541,0,0,0,67.414,31.961Z" transform="translate(-43.686 -30.789)" fill="#4affff"/>
        <path id="路径_98" data-name="路径 98" d="M71.564,32.322a1.872,1.872,0,0,0-.727-.707,2.188,2.188,0,0,0-1.064-.252,2.323,2.323,0,0,0-1.205.31,2.077,2.077,0,0,0-.814.851,2.653,2.653,0,0,0-.289,1.255,2.732,2.732,0,0,0,.289,1.276,2.092,2.092,0,0,0,.814.865,2.291,2.291,0,0,0,1.205.314,2.166,2.166,0,0,0,1.06-.256,1.875,1.875,0,0,0,.731-.714v.71a1.537,1.537,0,0,1-.474,1.179,1.752,1.752,0,0,1-1.259.44,2.577,2.577,0,0,1-.883-.148,2.843,2.843,0,0,1-.782-.454l-.394.653a3.5,3.5,0,0,0,2.1.707,3.027,3.027,0,0,0,1.364-.292,2.131,2.131,0,0,0,.912-.836,2.487,2.487,0,0,0,.322-1.276V31.392h-.9Zm-.206,2.361a1.586,1.586,0,0,1-.572.613,1.628,1.628,0,0,1-.84.22,1.544,1.544,0,0,1-1.173-.479,1.764,1.764,0,0,1-.463-1.229,1.827,1.827,0,0,1,.214-.887,1.55,1.55,0,0,1,.583-.609,1.713,1.713,0,0,1,1.679,0,1.576,1.576,0,0,1,.572.609,1.865,1.865,0,0,1,.206.887A1.842,1.842,0,0,1,71.358,34.683Z" transform="translate(-42.096 -29.351)" fill="#4affff"/>
        <path id="路径_99" data-name="路径 99" d="M72.63,35.6a2.089,2.089,0,0,1-.84.166,1.674,1.674,0,0,1-1.723-1.485h4.021a2.876,2.876,0,0,0,.011-.292,2.842,2.842,0,0,0-.608-1.929,2.246,2.246,0,0,0-1.788-.7,2.608,2.608,0,0,0-1.317.332,2.366,2.366,0,0,0-.9.909,2.909,2.909,0,0,0,0,2.661,2.3,2.3,0,0,0,.9.909,2.725,2.725,0,0,0,1.332.321,2.993,2.993,0,0,0,1.173-.224,2.463,2.463,0,0,0,.9-.624l-.489-.5A2.055,2.055,0,0,1,72.63,35.6Zm-2.037-3.093a1.628,1.628,0,0,1,1.122-.4,1.572,1.572,0,0,1,1.115.4,1.555,1.555,0,0,1,.463,1.089H70.06A1.667,1.667,0,0,1,70.592,32.506Z" transform="translate(-37.647 -29.351)" fill="#4affff"/>
        <path id="路径_100" data-name="路径 100" d="M75.595,36.464V33.331a2,2,0,0,0-.507-1.446,1.888,1.888,0,0,0-1.408-.523,1.97,1.97,0,0,0-1.932,1.1V31.392h-.894v5.073h.894V33.75a1.72,1.72,0,0,1,.485-1.107,1.561,1.561,0,0,1,1.111-.436A1.251,1.251,0,0,1,74.7,33.569v2.895Z" transform="translate(-33.218 -29.351)" fill="#4affff"/>
        <path id="路径_101" data-name="路径 101" d="M73.138,35.891a1.424,1.424,0,0,0,.376,1.085,1.348,1.348,0,0,0,.981.361,2.227,2.227,0,0,0,1.191-.371l-.239-.692a1.638,1.638,0,0,1-.789.242.573.573,0,0,1-.463-.184.949.949,0,0,1-.152-.6V33.083H75.6V32.4H74.043V31.042h-.9V32.4h-.72v.681h.72Z" transform="translate(-29.122 -30.188)" fill="#4affff"/>
      </g>
      <g id="组_58" data-name="组 58" transform="translate(50.459 25.649)">
        <path id="路径_102" data-name="路径 102" d="M61.377,38.222h1.712c.1,0,.221-.007.376-.022L64.8,40.309h1.057l-1.567-2.271a2.115,2.115,0,0,0,1.089-.8,2.354,2.354,0,0,0,.38-1.374,2.067,2.067,0,0,0-.695-1.669,2.986,2.986,0,0,0-1.979-.591H60.454v6.709h.923Zm0-3.785h1.712a2.087,2.087,0,0,1,1.328.368,1.311,1.311,0,0,1,.463,1.089,1.358,1.358,0,0,1-.463,1.114,2.044,2.044,0,0,1-1.328.382H61.377Z" transform="translate(-60.454 -33.6)" fill="#4affff"/>
        <path id="路径_103" data-name="路径 103" d="M64.742,39.174a2.993,2.993,0,0,0,1.173-.22,2.538,2.538,0,0,0,.9-.624l-.489-.5a2.046,2.046,0,0,1-.68.454,2.1,2.1,0,0,1-.84.166,1.707,1.707,0,0,1-1.151-.4,1.743,1.743,0,0,1-.572-1.085h4.021a2.782,2.782,0,0,0,.011-.288,2.83,2.83,0,0,0-.608-1.929,2.234,2.234,0,0,0-1.788-.7,2.6,2.6,0,0,0-1.317.332,2.318,2.318,0,0,0-.9.909,2.708,2.708,0,0,0-.322,1.327,2.736,2.736,0,0,0,.322,1.334,2.25,2.25,0,0,0,.9.9A2.725,2.725,0,0,0,64.742,39.174Zm-1.129-3.987a1.612,1.612,0,0,1,1.118-.4,1.561,1.561,0,0,1,1.118.4,1.541,1.541,0,0,1,.463,1.089H63.077A1.688,1.688,0,0,1,63.612,35.186Z" transform="translate(-55.926 -32.435)" fill="#4affff"/>
        <path id="路径_104" data-name="路径 104" d="M66.679,36.158h-1.4v-.663a.784.784,0,0,1,.232-.606.836.836,0,0,1,.575-.209,1.5,1.5,0,0,1,.655.166l.213-.728a1.976,1.976,0,0,0-.887-.234,1.812,1.812,0,0,0-.829.2,1.512,1.512,0,0,0-.619.588,1.748,1.748,0,0,0-.235.941v.548h-.662v.678h.662V39.6h.894V36.836h1.4Z" transform="translate(-51.904 -32.863)" fill="#4affff"/>
        <path id="路径_105" data-name="路径 105" d="M67.175,34.047a2.608,2.608,0,0,0-1.317.332,2.342,2.342,0,0,0-.9.909,2.708,2.708,0,0,0-.322,1.327,2.736,2.736,0,0,0,.322,1.334,2.272,2.272,0,0,0,.9.9,2.725,2.725,0,0,0,1.332.321,3.024,3.024,0,0,0,1.176-.22,2.57,2.57,0,0,0,.9-.624l-.492-.5a2.046,2.046,0,0,1-.68.454,2.089,2.089,0,0,1-.84.166,1.707,1.707,0,0,1-1.151-.4,1.742,1.742,0,0,1-.572-1.085H69.56a2.793,2.793,0,0,0,.011-.288,2.83,2.83,0,0,0-.608-1.929A2.234,2.234,0,0,0,67.175,34.047Zm-1.643,2.224a1.7,1.7,0,0,1,.532-1.085,1.628,1.628,0,0,1,1.122-.4,1.558,1.558,0,0,1,1.115.4,1.541,1.541,0,0,1,.463,1.089Z" transform="translate(-49.505 -32.435)" fill="#4affff"/>
        <path id="路径_106" data-name="路径 106" d="M66.326,34.072v5.072h.894V36.473a1.639,1.639,0,0,1,1.809-1.565v-.862a2.1,2.1,0,0,0-1.1.292,1.825,1.825,0,0,0-.713.826V34.072Z" transform="translate(-45.076 -32.435)" fill="#4affff"/>
        <path id="路径_107" data-name="路径 107" d="M69.732,34.047a2.608,2.608,0,0,0-1.317.332,2.342,2.342,0,0,0-.9.909,2.708,2.708,0,0,0-.322,1.327,2.736,2.736,0,0,0,.322,1.334,2.272,2.272,0,0,0,.9.9,2.725,2.725,0,0,0,1.332.321,3.024,3.024,0,0,0,1.176-.22,2.57,2.57,0,0,0,.9-.624l-.492-.5a2.046,2.046,0,0,1-.68.454,2.089,2.089,0,0,1-.84.166,1.707,1.707,0,0,1-1.151-.4A1.743,1.743,0,0,1,68.1,36.96h4.021a2.8,2.8,0,0,0,.011-.288,2.83,2.83,0,0,0-.608-1.929A2.234,2.234,0,0,0,69.732,34.047Zm-1.643,2.224a1.7,1.7,0,0,1,.532-1.085,1.628,1.628,0,0,1,1.122-.4,1.558,1.558,0,0,1,1.115.4,1.541,1.541,0,0,1,.463,1.089Z" transform="translate(-42.808 -32.435)" fill="#4affff"/>
        <path id="路径_108" data-name="路径 108" d="M71.709,34.047a1.962,1.962,0,0,0-1.932,1.1V34.072h-.894v5.072h.894V36.434a1.694,1.694,0,0,1,.485-1.107,1.525,1.525,0,0,1,1.111-.436A1.251,1.251,0,0,1,72.73,36.25v2.895h.894V36.012a1.987,1.987,0,0,0-.51-1.446A1.877,1.877,0,0,0,71.709,34.047Z" transform="translate(-38.38 -32.435)" fill="#4affff"/>
        <path id="路径_109" data-name="路径 109" d="M73.959,38.233a2.228,2.228,0,0,1-.883.166,1.673,1.673,0,0,1-.872-.227,1.586,1.586,0,0,1-.6-.627,2.1,2.1,0,0,1,.007-1.86,1.587,1.587,0,0,1,.612-.624,1.8,1.8,0,0,1,.89-.22,2.039,2.039,0,0,1,1.451.584l.489-.609a2.216,2.216,0,0,0-.861-.573,3.235,3.235,0,0,0-1.158-.195,2.641,2.641,0,0,0-1.317.324,2.25,2.25,0,0,0-.9.912,2.685,2.685,0,0,0-.326,1.33,2.652,2.652,0,0,0,.326,1.327,2.254,2.254,0,0,0,.9.9,2.606,2.606,0,0,0,1.317.328,3.01,3.01,0,0,0,1.209-.231,2.205,2.205,0,0,0,.879-.663l-.51-.516A1.665,1.665,0,0,1,73.959,38.233Z" transform="translate(-34.156 -32.435)" fill="#4affff"/>
        <path id="路径_110" data-name="路径 110" d="M74.494,34.047a2.6,2.6,0,0,0-1.317.332,2.318,2.318,0,0,0-.9.909,2.669,2.669,0,0,0-.322,1.327,2.7,2.7,0,0,0,.322,1.334,2.227,2.227,0,0,0,.9.9,2.725,2.725,0,0,0,1.332.321,2.993,2.993,0,0,0,1.172-.22,2.538,2.538,0,0,0,.9-.624l-.489-.5a2.046,2.046,0,0,1-.68.454,2.1,2.1,0,0,1-.84.166,1.707,1.707,0,0,1-1.151-.4,1.725,1.725,0,0,1-.572-1.085h4.021a2.793,2.793,0,0,0,.011-.288,2.83,2.83,0,0,0-.608-1.929A2.234,2.234,0,0,0,74.494,34.047Zm-1.647,2.224a1.688,1.688,0,0,1,.536-1.085,1.612,1.612,0,0,1,1.118-.4,1.479,1.479,0,0,1,1.581,1.489Z" transform="translate(-30.337 -32.435)" fill="#4affff"/>
      </g>
    </g>
  </g>
</svg>
