<svg xmlns="http://www.w3.org/2000/svg" width="161" height="43" viewBox="0 0 161 43">
  <g id="组_1500" data-name="组 1500" transform="translate(-360 -21)">
    <g id="达芬奇调色助理_BW" transform="translate(360 21)">
      <g id="达芬奇调色助理_BW-2" data-name="达芬奇调色助理_BW" transform="translate(0)">
        <path id="外环" d="M25.409.6l.334.085h0L25.8.7l.059.018,0,.008a2.081,2.081,0,0,1-1.115,4.005l-.071-.017v0A16.307,16.307,0,1,0,36.722,18.665c-.017-.154-.038-.308-.059-.463a14.984,14.984,0,0,0-.576-2.4l-.057-.239h0a2.078,2.078,0,0,1,.008-1.031,2.1,2.1,0,0,1,4.037-.067l.021.075.005-.019a20.453,20.453,0,0,1,.7,3.092c.027.195.052.385.073.577A20.5,20.5,0,1,1,25.409.6Z" transform="translate(0)" fill="#fff"/>
        <path id="内环" d="M8.821.018l0,.006a2.094,2.094,0,1,1,.607,4.144l-.08.01A5.747,5.747,0,0,0,5.072,6.811a5.8,5.8,0,1,0,9.806,6.206,5.708,5.708,0,0,0,.854-2.579,2.1,2.1,0,1,1,4.19.024l-.006.081,0,0-.021.175h0a9.846,9.846,0,0,1-1.494,4.529A9.977,9.977,0,1,1,8.656.046L8.821.018l0,.006Z" transform="translate(10.601 10.554)" fill="#fff"/>
        <path id="色轮" d="M9.631.484a2.979,2.979,0,0,1,.512,4.556,2.918,2.918,0,0,1-2.366.867L7.683,5.9V5.9A1.692,1.692,0,0,0,5.891,7.742l.011.071H5.891a2.923,2.923,0,0,1-.773,2.443A2.976,2.976,0,0,1,.481,6.567,2.907,2.907,0,0,1,.79,6.183c.015-.018.026-.038.043-.056s.053-.049.08-.073l.1-.093h0a2.93,2.93,0,0,1,2.188-.693l.1.009V5.262a1.634,1.634,0,0,0,1.305-.5,1.619,1.619,0,0,0,.486-1.341l-.011-.071a2.952,2.952,0,0,1,.632-2.272L5.79.994h0c.024-.028.044-.057.069-.083L5.9.873l.009.009A2.847,2.847,0,0,1,6.285.543,2.986,2.986,0,0,1,9.631.484Z" transform="translate(25.063 4.489)" fill="#fff"/>
      </g>
    </g>
    <g id="达芬奇调色Title_细" transform="translate(392 24)">
      <g id="达芬奇调色Title_细-2" data-name="达芬奇调色Title_细" transform="translate(15 -5)">
        <text id="达芬奇调色" transform="translate(-15 5)" fill="#fff" font-size="18" font-family="YuGothicUI-Regular, Yu Gothic UI" letter-spacing="0.05em"><tspan x="17.7" y="19">达芬奇配色</tspan></text>
        <text id="Vinci_Color" data-name="Vinci Color" transform="translate(-6 22)" fill="#fff" font-size="14" font-family="SegoeUI, Segoe UI" letter-spacing="0.024em"><tspan x="12.816" y="15">VINCI COLOR</tspan></text>
      </g>
    </g>
  </g>
</svg>
