<svg xmlns="http://www.w3.org/2000/svg" width="109.059" height="30" viewBox="0 0 109.059 30">
  <g id="LOGO" transform="translate(-1623 873)">
    <g id="智能参考Color" transform="translate(1623 -873)">
      <path id="路径_78" data-name="路径 78" d="M75.68,36.19V33.846H71.519V29.594H69.287v4.252H54.414V29.594H52.182v4.252H48.021V36.19h4.161v2.022H48.021v2.345h4.161v8.075H48.024v2.345h4.158V53H48.021v2.345h4.161v4.249h2.233V55.345H69.287v4.249h2.233V55.345H75.68V53H71.519V50.976H75.68V48.631H71.519V40.557H75.68V38.212H71.519V36.19ZM54.414,48.345V40.557h6.109ZM69.287,53H54.414v-.966L65.255,38.212H54.414V36.19H69.287v.679L58.221,50.976H69.287Zm-6.336-4.369,6.336-8.075v8.075Z" transform="translate(-48.021 -29.594)" fill="#4affff"/>
    </g>
    <g id="LOGO_Text" data-name="LOGO+Text" transform="translate(1657.558 -869.928)">
      <g id="组_56" data-name="组 56" transform="translate(0 0)">
        <path id="路径_81" data-name="路径 81" d="M68.222,38.787h8.908V37.32H66.759v4.894h8.928v.111a2.363,2.363,0,0,1-2.371,2.362H66.88v1.447h6.436a3.82,3.82,0,0,0,3.823-3.809V40.767H68.222Z" transform="translate(-3.507 -29.858)" fill="#4affff"/>
        <path id="路径_82" data-name="路径 82" d="M80.489,41.812H74.224v-2.06h7.213V38.293H74.224V36.578H72.76v1.716H67.011v1.459H72.76v2.06H66.285v1.459h3.224L66.285,47.3l1.144.91,3.952-4.936h9.872l1.067-1.524-1.2-.834Z" transform="translate(-7.819 -36.578)" fill="#4affff"/>
        <rect id="矩形_61" data-name="矩形 61" width="1.46" height="3.898" transform="translate(4.814 7.667) rotate(-82.365)" fill="#4affff"/>
        <path id="路径_83" data-name="路径 83" d="M64.318,36.662h-2.9v7.367h6.234v-4.05A3.335,3.335,0,0,0,64.318,36.662ZM66.2,42.581H62.876V38.109h1.443A1.878,1.878,0,0,1,66.2,39.978Z" transform="translate(-52.001 -35.813)" fill="#4affff"/>
        <path id="路径_84" data-name="路径 84" d="M60.762,37.487a.18.18,0,0,0-.182.181v6.774a.18.18,0,0,0,.182.181h13.9a.18.18,0,0,0,.182-.181V37.668a.18.18,0,0,0-.182-.181Zm12.63,5.507a.18.18,0,0,1-.182.181h-11a.18.18,0,0,1-.182-.181V41.788H73.392Zm0-2.673H62.033V39.115a.18.18,0,0,1,.182-.181h11a.18.18,0,0,1,.182.181Z" transform="translate(-59.662 -28.347)" fill="#4affff"/>
        <path id="路径_85" data-name="路径 85" d="M65.583,41.935h3.773V40.477H66.007V38.869h3.349V37.412h-7.4v-.834H60.489v2.291h4.055v1.065a4.685,4.685,0,0,1-.061.543H60.489v1.457h3.47a4.034,4.034,0,0,1-3.47,1.99v1.437A5.5,5.5,0,0,0,65.583,41.935Z" transform="translate(-60.489 -36.573)" fill="#4affff"/>
        <path id="路径_86" data-name="路径 86" d="M64.784,41.193v-.724A10.991,10.991,0,0,0,69.9,38.65l-.878-1.156A9.266,9.266,0,0,1,64.784,39V36.58H63.331v4.613A3.165,3.165,0,0,0,66.5,44.339H70.05V42.891H66.5A1.708,1.708,0,0,1,64.784,41.193Z" transform="translate(-34.661 -36.555)" fill="#4affff"/>
        <path id="路径_87" data-name="路径 87" d="M62.446,47.147H63.9V43.8h5.024v.1c0,1.548-.575,1.8-1.957,1.8v1.447c.928,0,3.41,0,3.41-3.246V37.208H62.446ZM63.9,38.655h5.024v1.116H63.9Zm0,2.583h5.024v1.105H63.9Z" transform="translate(-42.704 -30.872)" fill="#4affff"/>
        <path id="路径_88" data-name="路径 88" d="M64.784,42.009v-.724A10.9,10.9,0,0,0,69.9,39.476l-.878-1.156a9.266,9.266,0,0,1-4.237,1.507V37.406H63.331v4.6A3.167,3.167,0,0,0,66.5,45.165H70.05V43.717H66.5A1.71,1.71,0,0,1,64.784,42.009Z" transform="translate(-34.661 -29.08)" fill="#4affff"/>
        <path id="路径_89" data-name="路径 89" d="M69.1,38.256l.222,1.317c0,.955-.393,1.146-1.069,1.146l-4.116.01a.173.173,0,0,1-.161-.241l1.422-3.628.111-.281H64.073a.177.177,0,0,0-.171.111l-1.382,3.517a1.43,1.43,0,0,0,1.342,1.95h4.388c1.6,0,2.522-.945,2.512-2.7l-.232-1.427Z" transform="translate(-42.918 -36.573)" fill="#4affff"/>
        <path id="路径_90" data-name="路径 90" d="M80.507,43.211V41.754H72.538a8.875,8.875,0,0,0,.746-.945h3.7a2.785,2.785,0,0,0,.918-.141,2.226,2.226,0,0,0,1.382-2.784l-.182-.6-1.382.412.171.6a.785.785,0,0,1-.424.995,1.527,1.527,0,0,1-.484.08h-9.18l1.614-2.4.272-.392H67.948L66.112,39.3a.969.969,0,0,0,.02.965,1.216,1.216,0,0,0,1.039.543h4.267a10.674,10.674,0,0,1-.958.945H64.629v1.457h3.944a29.816,29.816,0,0,1-4.247,2.342l.605,1.307a26.5,26.5,0,0,0,6.063-3.648h3.38L80.1,47.04l.807-1.2-3.934-2.633Z" transform="translate(-25.619 -36.573)" fill="#4affff"/>
        <path id="路径_91" data-name="路径 91" d="M71.277,38.108l-1.261-.824a20.714,20.714,0,0,1-5.367,2.995l.383,1.387A20.4,20.4,0,0,0,70.672,38.6C70.8,38.5,71.257,38.128,71.277,38.108Z" transform="translate(-22.683 -30.184)" fill="#4affff"/>
        <path id="路径_92" data-name="路径 92" d="M64.918,42.932a16.307,16.307,0,0,0,8.343-4.7l-1.221-.814a14.99,14.99,0,0,1-7.4,4.1Z" transform="translate(-22.81 -28.998)" fill="#4affff"/>
        <path id="路径_93" data-name="路径 93" d="M74.5,37.539c-.837.814-4.842,4.482-9.876,5.186l.2,1.427c6.144-.864,10.7-5.578,10.895-5.779l-.04-.04Z" transform="translate(-22.874 -27.876)" fill="#4affff"/>
      </g>
      <g id="组_57" data-name="组 57" transform="translate(0 19.697)">
        <rect id="矩形_62" data-name="矩形 62" width="0.709" height="5.152" transform="translate(0 0.31)" fill="#4affff"/>
        <path id="路径_94" data-name="路径 94" d="M64.141,35.281h.686V32.875a1.522,1.522,0,0,0-.392-1.11,1.443,1.443,0,0,0-1.078-.4,1.51,1.51,0,0,0-1.484.847v-.825h-.689v3.9h.689V33.2a1.307,1.307,0,0,1,.372-.85,1.189,1.189,0,0,1,.853-.335.961.961,0,0,1,1.042,1.047Z" transform="translate(-59.155 -29.818)" fill="#4affff"/>
        <path id="路径_95" data-name="路径 95" d="M63.3,34.766a1.093,1.093,0,0,0,.289.833,1.035,1.035,0,0,0,.753.277,1.71,1.71,0,0,0,.914-.285l-.183-.532a1.258,1.258,0,0,1-.606.186.44.44,0,0,1-.356-.141A.729.729,0,0,1,64,34.641V32.609h1.2v-.523H64V31.042H63.3v1.044h-.556v.523H63.3Z" transform="translate(-56.373 -30.386)" fill="#4affff"/>
        <path id="路径_96" data-name="路径 96" d="M64.721,35.056a2.1,2.1,0,0,0,1.025.246,2.3,2.3,0,0,0,.9-.172,1.914,1.914,0,0,0,.695-.479l-.378-.388a1.567,1.567,0,0,1-.52.352,1.618,1.618,0,0,1-.648.127,1.285,1.285,0,0,1-1.32-1.141h3.088c0-.05.008-.125.008-.224a2.183,2.183,0,0,0-.467-1.481,1.733,1.733,0,0,0-1.373-.534,2.013,2.013,0,0,0-1.014.255,1.81,1.81,0,0,0-.689.7,2.234,2.234,0,0,0,0,2.043A1.745,1.745,0,0,0,64.721,35.056Zm.156-2.816a1.25,1.25,0,0,1,.862-.31,1.209,1.209,0,0,1,.859.3,1.192,1.192,0,0,1,.353.836H64.468A1.293,1.293,0,0,1,64.877,32.241Z" transform="translate(-54.533 -29.818)" fill="#4affff"/>
        <rect id="矩形_63" data-name="矩形 63" width="0.688" height="5.461" transform="translate(13.975 0)" fill="#4affff"/>
        <rect id="矩形_64" data-name="矩形 64" width="0.688" height="5.461" transform="translate(15.933 0)" fill="#4affff"/>
        <rect id="矩形_65" data-name="矩形 65" width="0.687" height="3.894" transform="translate(17.883 1.567)" fill="#4affff"/>
        <path id="路径_97" data-name="路径 97" d="M67.285,31.694a.409.409,0,0,0,.306-.125.447.447,0,0,0,.122-.318.436.436,0,0,0-.122-.316.409.409,0,0,0-.306-.125.416.416,0,0,0-.308.125.434.434,0,0,0-.119.316.445.445,0,0,0,.119.318A.416.416,0,0,0,67.285,31.694Z" transform="translate(-49.062 -30.794)" fill="#4affff"/>
        <path id="路径_98" data-name="路径 98" d="M70.613,32.1a1.438,1.438,0,0,0-.559-.543,1.681,1.681,0,0,0-.817-.194,1.784,1.784,0,0,0-.925.238,1.6,1.6,0,0,0-.625.653,2.037,2.037,0,0,0-.222.963,2.1,2.1,0,0,0,.222.98,1.607,1.607,0,0,0,.625.664,1.759,1.759,0,0,0,.925.241,1.663,1.663,0,0,0,.814-.2,1.44,1.44,0,0,0,.561-.548V34.9a1.18,1.18,0,0,1-.364.905,1.345,1.345,0,0,1-.967.338,1.979,1.979,0,0,1-.678-.114,2.183,2.183,0,0,1-.6-.349l-.3.5a2.684,2.684,0,0,0,1.612.543A2.324,2.324,0,0,0,70.36,36.5a1.637,1.637,0,0,0,.7-.642,1.91,1.91,0,0,0,.247-.98v-3.5h-.695Zm-.158,1.813a1.218,1.218,0,0,1-.439.471,1.251,1.251,0,0,1-.645.169,1.186,1.186,0,0,1-.9-.368,1.355,1.355,0,0,1-.356-.944,1.4,1.4,0,0,1,.164-.681,1.191,1.191,0,0,1,.447-.468,1.315,1.315,0,0,1,1.29,0,1.21,1.21,0,0,1,.439.468,1.432,1.432,0,0,1,.158.681A1.415,1.415,0,0,1,70.454,33.913Z" transform="translate(-47.982 -29.818)" fill="#4affff"/>
        <path id="路径_99" data-name="路径 99" d="M71.825,34.616a1.6,1.6,0,0,1-.645.127A1.285,1.285,0,0,1,69.858,33.6h3.088a2.211,2.211,0,0,0,.008-.224,2.183,2.183,0,0,0-.467-1.481,1.725,1.725,0,0,0-1.373-.534,2,2,0,0,0-1.012.255,1.817,1.817,0,0,0-.692.7,2.234,2.234,0,0,0,0,2.043,1.769,1.769,0,0,0,.695.7,2.092,2.092,0,0,0,1.023.246,2.3,2.3,0,0,0,.9-.172,1.891,1.891,0,0,0,.695-.479l-.375-.388A1.578,1.578,0,0,1,71.825,34.616Zm-1.565-2.375a1.25,1.25,0,0,1,.862-.31,1.207,1.207,0,0,1,.856.3,1.194,1.194,0,0,1,.356.836H69.852A1.28,1.28,0,0,1,70.261,32.241Z" transform="translate(-44.96 -29.818)" fill="#4affff"/>
        <path id="路径_100" data-name="路径 100" d="M74.495,35.281V32.875a1.532,1.532,0,0,0-.389-1.11,1.45,1.45,0,0,0-1.081-.4,1.513,1.513,0,0,0-1.484.847v-.825h-.686v3.9h.686V33.2a1.321,1.321,0,0,1,.372-.85,1.2,1.2,0,0,1,.853-.335.961.961,0,0,1,1.042,1.047v2.223Z" transform="translate(-41.951 -29.818)" fill="#4affff"/>
        <path id="路径_101" data-name="路径 101" d="M72.971,34.766a1.093,1.093,0,0,0,.289.833,1.035,1.035,0,0,0,.753.277,1.71,1.71,0,0,0,.914-.285l-.183-.532a1.258,1.258,0,0,1-.606.186.44.44,0,0,1-.356-.141.729.729,0,0,1-.117-.462V32.609h1.195v-.523H73.666V31.042h-.695v1.044h-.553v.523h.553Z" transform="translate(-39.169 -30.386)" fill="#4affff"/>
      </g>
      <g id="组_58" data-name="组 58" transform="translate(38.751 19.697)">
        <path id="路径_102" data-name="路径 102" d="M61.163,37.149h1.315c.075,0,.17-.006.289-.017l1.028,1.62h.812l-1.2-1.744a1.624,1.624,0,0,0,.837-.617,1.808,1.808,0,0,0,.292-1.055A1.587,1.587,0,0,0,64,34.054a2.293,2.293,0,0,0-1.52-.454H60.454v5.152h.709Zm0-2.907h1.315a1.6,1.6,0,0,1,1.02.282,1.007,1.007,0,0,1,.356.836,1.043,1.043,0,0,1-.356.855,1.57,1.57,0,0,1-1.02.293H61.163Z" transform="translate(-60.454 -33.6)" fill="#4affff"/>
        <path id="路径_103" data-name="路径 103" d="M64.148,37.984a2.3,2.3,0,0,0,.9-.169,1.949,1.949,0,0,0,.695-.479l-.375-.388a1.571,1.571,0,0,1-.522.349,1.614,1.614,0,0,1-.645.127,1.311,1.311,0,0,1-.884-.307,1.338,1.338,0,0,1-.439-.833h3.088a2.135,2.135,0,0,0,.008-.221,2.173,2.173,0,0,0-.467-1.481,1.716,1.716,0,0,0-1.373-.534,2,2,0,0,0-1.012.255,1.78,1.78,0,0,0-.692.7,2.08,2.08,0,0,0-.247,1.019,2.1,2.1,0,0,0,.247,1.024,1.728,1.728,0,0,0,.695.695A2.093,2.093,0,0,0,64.148,37.984Zm-.867-3.062a1.238,1.238,0,0,1,.859-.31,1.2,1.2,0,0,1,.859.307,1.184,1.184,0,0,1,.356.836H62.869A1.3,1.3,0,0,1,63.281,34.922Z" transform="translate(-57.378 -32.809)" fill="#4affff"/>
        <path id="路径_104" data-name="路径 104" d="M65.992,35.63H64.914v-.509a.6.6,0,0,1,.178-.465.642.642,0,0,1,.442-.161,1.155,1.155,0,0,1,.5.127l.164-.559a1.518,1.518,0,0,0-.681-.18,1.391,1.391,0,0,0-.636.152,1.161,1.161,0,0,0-.475.451,1.342,1.342,0,0,0-.181.723v.421h-.509v.521h.509v2.124h.686V36.151h1.078Z" transform="translate(-54.645 -33.099)" fill="#4affff"/>
        <path id="路径_105" data-name="路径 105" d="M66.586,34.047a2,2,0,0,0-1.012.255,1.8,1.8,0,0,0-.692.7,2.08,2.08,0,0,0-.247,1.019,2.1,2.1,0,0,0,.247,1.024,1.745,1.745,0,0,0,.695.695,2.093,2.093,0,0,0,1.023.246,2.322,2.322,0,0,0,.9-.169,1.974,1.974,0,0,0,.695-.479l-.378-.388a1.571,1.571,0,0,1-.522.349,1.6,1.6,0,0,1-.645.127,1.311,1.311,0,0,1-.884-.307,1.338,1.338,0,0,1-.439-.833h3.088a2.145,2.145,0,0,0,.008-.221,2.173,2.173,0,0,0-.467-1.481A1.716,1.716,0,0,0,66.586,34.047Zm-1.262,1.708a1.307,1.307,0,0,1,.409-.833,1.25,1.25,0,0,1,.862-.31,1.2,1.2,0,0,1,.856.307,1.184,1.184,0,0,1,.356.836Z" transform="translate(-53.016 -32.809)" fill="#4affff"/>
        <path id="路径_106" data-name="路径 106" d="M66.326,34.066v3.9h.686V35.91a1.259,1.259,0,0,1,1.39-1.2v-.662a1.616,1.616,0,0,0-.842.224,1.4,1.4,0,0,0-.547.634v-.839Z" transform="translate(-50.007 -32.809)" fill="#4affff"/>
        <path id="路径_107" data-name="路径 107" d="M69.143,34.047a2,2,0,0,0-1.012.255,1.8,1.8,0,0,0-.692.7,2.08,2.08,0,0,0-.247,1.019,2.1,2.1,0,0,0,.247,1.024,1.745,1.745,0,0,0,.695.695,2.093,2.093,0,0,0,1.023.246,2.322,2.322,0,0,0,.9-.169,1.974,1.974,0,0,0,.695-.479l-.378-.388a1.571,1.571,0,0,1-.522.349,1.6,1.6,0,0,1-.645.127,1.311,1.311,0,0,1-.884-.307,1.338,1.338,0,0,1-.439-.833h3.088a2.15,2.15,0,0,0,.008-.221,2.173,2.173,0,0,0-.467-1.481A1.716,1.716,0,0,0,69.143,34.047Zm-1.262,1.708a1.307,1.307,0,0,1,.409-.833,1.25,1.25,0,0,1,.862-.31,1.2,1.2,0,0,1,.856.307,1.184,1.184,0,0,1,.356.836Z" transform="translate(-48.466 -32.809)" fill="#4affff"/>
        <path id="路径_108" data-name="路径 108" d="M71.053,34.047a1.507,1.507,0,0,0-1.484.844v-.825h-.686v3.9h.686V35.88a1.3,1.3,0,0,1,.372-.85,1.171,1.171,0,0,1,.853-.335.96.96,0,0,1,1.042,1.044v2.223h.686V35.556a1.526,1.526,0,0,0-.392-1.11A1.442,1.442,0,0,0,71.053,34.047Z" transform="translate(-45.458 -32.809)" fill="#4affff"/>
        <path id="路径_109" data-name="路径 109" d="M73.156,37.261a1.711,1.711,0,0,1-.678.127,1.285,1.285,0,0,1-.67-.174,1.218,1.218,0,0,1-.459-.482,1.613,1.613,0,0,1,.006-1.429,1.219,1.219,0,0,1,.47-.479,1.382,1.382,0,0,1,.684-.169,1.566,1.566,0,0,1,1.114.449L74,34.637a1.7,1.7,0,0,0-.661-.44,2.484,2.484,0,0,0-.889-.15,2.028,2.028,0,0,0-1.012.249,1.728,1.728,0,0,0-.689.7,2.062,2.062,0,0,0-.25,1.022,2.036,2.036,0,0,0,.25,1.019,1.731,1.731,0,0,0,.689.695,2,2,0,0,0,1.012.252,2.311,2.311,0,0,0,.928-.177,1.694,1.694,0,0,0,.675-.509l-.392-.4A1.279,1.279,0,0,1,73.156,37.261Z" transform="translate(-42.588 -32.809)" fill="#4affff"/>
        <path id="路径_110" data-name="路径 110" d="M73.9,34.047a2,2,0,0,0-1.012.255,1.78,1.78,0,0,0-.692.7,2.05,2.05,0,0,0-.247,1.019,2.071,2.071,0,0,0,.247,1.024,1.711,1.711,0,0,0,.695.695,2.093,2.093,0,0,0,1.023.246,2.3,2.3,0,0,0,.9-.169,1.949,1.949,0,0,0,.695-.479l-.375-.388a1.571,1.571,0,0,1-.522.349,1.614,1.614,0,0,1-.645.127,1.311,1.311,0,0,1-.884-.307,1.325,1.325,0,0,1-.439-.833h3.088a2.145,2.145,0,0,0,.008-.221,2.173,2.173,0,0,0-.467-1.481A1.716,1.716,0,0,0,73.9,34.047ZM72.64,35.755a1.3,1.3,0,0,1,.411-.833,1.238,1.238,0,0,1,.859-.31,1.136,1.136,0,0,1,1.214,1.143Z" transform="translate(-39.994 -32.809)" fill="#4affff"/>
      </g>
    </g>
  </g>
</svg>
