<svg xmlns="http://www.w3.org/2000/svg" width="20.448" height="17.35" viewBox="0 0 20.448 17.35">
  <path id="路径_190" data-name="路径 190" d="M163.125,215.192H181.59a.977.977,0,0,0,.991-.991c0-.62-.5-.867-1.115-.867H163.125a.977.977,0,0,0-.991.991A.884.884,0,0,0,163.125,215.192Zm18.341,5.825H163.125a.977.977,0,0,0-.991.991.912.912,0,0,0,.991.991H181.59a.977.977,0,0,0,.991-.991A1.012,1.012,0,0,0,181.466,221.017Zm0,7.807H163.125a.977.977,0,0,0-.991.991c0,.62.372.867.991.867H181.59a.977.977,0,0,0,.991-.991C182.582,229.072,182.086,228.824,181.466,228.824Z" transform="translate(-162.133 -213.333)" fill="#4affff"/>
</svg>
