<svg xmlns="http://www.w3.org/2000/svg" width="139.851" height="51.283" viewBox="0 0 139.851 51.283">
  <g id="组_84" data-name="组 84" transform="translate(-411 -15)">
    <g id="下载图标LOGO_BGR" transform="translate(411 15)">
      <path id="路径_32" data-name="路径 32" d="M610.223,105.631c0-12.111-10.143-21.93-22.655-21.93s-22.655,9.819-22.655,21.93a21.965,21.965,0,0,0,14.53,20.47v.011a9.52,9.52,0,0,1,5.117,3.966c.546.868,1.528,4.868,3.006,4.878h0c1.48-.011,2.461-4.01,3.006-4.878a9.524,9.524,0,0,1,5.118-3.966V126.1A21.966,21.966,0,0,0,610.223,105.631Z" transform="translate(-564.913 -83.673)" fill="#fd0000"/>
      <path id="路径_55" data-name="路径 55" d="M598.336,97.621a8.5,8.5,0,0,0-2.966-4.213A10.655,10.655,0,0,0,593,92.05a29.784,29.784,0,0,0-3.533-1c-.039-.067-.077-.131-.116-.2a5.529,5.529,0,0,0-2.471-2.154c-.588-.29-.79-.13-.965.526a6.28,6.28,0,0,1-.52,1.91c-.425.09-2.769.69-3.491.969a16.983,16.983,0,0,0-8.231,6.482,13.018,13.018,0,0,0-.925,1.733c-.172.469-.331.962-.4,1.211a9.359,9.359,0,0,0-.357,2.759,2.054,2.054,0,0,0,1.461,2.1,16.333,16.333,0,0,0,4,.867c.55-.106.649-.323.389-.821a7.106,7.106,0,0,1-.817-2.019,11.492,11.492,0,0,1-.182-2.831,5.793,5.793,0,0,1,.083-.6c.026-.136.134-.658.18-.773,1.345-3.374,4.029-5.15,7.353-6.168.322-.1.368.055.3.321-.165.649-1.615,6.879-1.879,7.946-.6,2.444-1.073,4.915-1.581,7.378a2.916,2.916,0,0,0,.155,2.06c.189.354.673,1.069.911,1.407a8.977,8.977,0,0,0,1.987,2,.6.6,0,0,0,.643.136c.243-.12.271-.352.265-.594a45.147,45.147,0,0,1,.265-5.516,67.935,67.935,0,0,1,1.361-8.049c.361-1.477,1.666-7.11,1.666-7.117a8.029,8.029,0,0,1,2.474.329c1.554.494,2.9,1.257,3.25,3.081a1,1,0,0,0,.993.819c.752.067,1.5.212,2.247.323C598.32,98.7,598.592,98.4,598.336,97.621Z" transform="translate(-563.686 -82.831)" fill="#fff"/>
      <path id="路径_56" data-name="路径 56" d="M594.892,104.879a6.9,6.9,0,0,0-1.876-1.359,5.423,5.423,0,0,0-.756-.277c-.237-.072-.779-.195-.942-.231a11.761,11.761,0,0,0,1.576-.916,6.668,6.668,0,0,0,2.577-2.758,1.185,1.185,0,0,0-.183-1.142,2.021,2.021,0,0,0-2.07-.5.917.917,0,0,0-.319.2c-.219.231-.841,1.326-4.724,3.721-.65.4-2.583,1.219-2.143,2.675.136.449.628.447,1.029.479a8.215,8.215,0,0,1,3.987,1.273,6.477,6.477,0,0,1,.956.9,6.586,6.586,0,0,1,.554.657,5.405,5.405,0,0,1,.789,1.691,4.491,4.491,0,0,1,.109,1.823,5.627,5.627,0,0,1-1.96,3.614,7.509,7.509,0,0,1-1.09.724,3.828,3.828,0,0,1-.965.344,8,8,0,0,1-2.963.076h-.007a7.573,7.573,0,0,1-1.007-.255c-.13-.041-.258-.082-.384-.128-.06-.022-.117-.05-.176-.075a9.6,9.6,0,0,1-3.837-2.853,16.651,16.651,0,0,1-2.61-4.023c-.126-.28-.195-.646-.583-.662s-.557.319-.719.617a6.259,6.259,0,0,0,.659,6.361,12.951,12.951,0,0,0,1.447,1.457c.1.089,1.092.793,1.3.908a15.792,15.792,0,0,0,3.023,1.31,14.233,14.233,0,0,0,5.654.4c.133-.015.675-.118.812-.157a14.177,14.177,0,0,0,2.33-.851,11.488,11.488,0,0,0,1.069-.58,7.312,7.312,0,0,0,.718-.557c.262-.239.581-.537.679-.645a7.877,7.877,0,0,0,1.76-2.919A8.008,8.008,0,0,0,594.892,104.879Z" transform="translate(-562.892 -81.266)" fill="#fff"/>
      <path id="路径_54" data-name="路径 54" d="M584.687,84.969c-.1-.219-.113-.623.344-1.292h-1.508l-.191,1.529s2.157,1.049,1.4,1.864-.583.933-.583.933,1.976-.908.995-2.46A6.1,6.1,0,0,1,584.687,84.969Z" transform="translate(-561.719 -83.677)" fill="#fff"/>
    </g>
    <g id="下载图标TEXT" transform="translate(465 27)">
      <g id="组_45" data-name="组 45" transform="translate(16.853 21.491)">
        <path id="路径_57" data-name="路径 57" d="M1043.14,148.222H1042a.247.247,0,0,1-.246-.235v-1.029a.245.245,0,0,1,.246-.235h1.143a.237.237,0,0,1,.236.235v1.029A.238.238,0,0,1,1043.14,148.222Zm-.035,7.472h-1.084a.246.246,0,0,1-.235-.247v-6.115a.235.235,0,0,1,.235-.235h1.084a.237.237,0,0,1,.236.235v6.115A.248.248,0,0,1,1043.105,155.694Z" transform="translate(-1041.751 -146.724)" fill="#fff"/>
        <path id="路径_58" data-name="路径 58" d="M1048.367,155.247a6.366,6.366,0,0,1-1.519.154,2.553,2.553,0,0,1-2.684-2.842v-1.089a2.551,2.551,0,0,1,2.684-2.841,6.466,6.466,0,0,1,1.519.152c.2.046.246.117.246.3v.762c0,.117-.092.174-.211.174h-.035a10.286,10.286,0,0,0-1.519-.082c-.554,0-1.131.315-1.131,1.532v1.089c0,1.215.578,1.532,1.131,1.532a10.284,10.284,0,0,0,1.519-.082h.035c.119,0,.211.058.211.174v.76C1048.613,155.13,1048.568,155.2,1048.367,155.247Z" transform="translate(-1041.241 -146.337)" fill="#fff"/>
        <path id="路径_59" data-name="路径 59" d="M1051.562,155.4a2.66,2.66,0,0,1-2.814-2.912v-.948a2.815,2.815,0,1,1,5.628,0v.948A2.661,2.661,0,0,1,1051.562,155.4Zm1.26-3.86c0-.959-.436-1.578-1.26-1.578s-1.26.62-1.26,1.578v.948c0,.958.436,1.577,1.26,1.577s1.26-.62,1.26-1.577Z" transform="translate(-1040.272 -146.337)" fill="#fff"/>
        <path id="路径_60" data-name="路径 60" d="M1059.7,155.307h-1.082a.246.246,0,0,1-.235-.247v-3.811c0-1.018-.1-1.31-1-1.31a3,3,0,0,0-1.33.421v4.7a.247.247,0,0,1-.236.247h-1.083a.246.246,0,0,1-.235-.247v-6.115a.235.235,0,0,1,.235-.235h1.025a.235.235,0,0,1,.235.235v.244a3.072,3.072,0,0,1,1.908-.559c1.695,0,2.037,1.135,2.037,2.619v3.811A.247.247,0,0,1,1059.7,155.307Z" transform="translate(-1039.057 -146.337)" fill="#fff"/>
        <path id="路径_61" data-name="路径 61" d="M1062.982,155.757a19.639,19.639,0,0,1-2.32-.142.319.319,0,0,1-.305-.362v-7.871a.319.319,0,0,1,.305-.362,20.289,20.289,0,0,1,2.32-.14c2.355,0,3.7,1.263,3.7,3.578v1.718C1066.679,154.493,1065.337,155.757,1062.982,155.757Zm2.071-5.3c0-1.754-.894-2.21-2.071-2.21-.435,0-.743.024-.99.035v6.07c.247.012.555.035.99.035,1.177,0,2.071-.456,2.071-2.211Z" transform="translate(-1037.819 -146.692)" fill="#fff"/>
        <path id="路径_62" data-name="路径 62" d="M1069.4,155.4a2.66,2.66,0,0,1-2.814-2.912v-.948a2.816,2.816,0,1,1,5.628,0v.948A2.661,2.661,0,0,1,1069.4,155.4Zm1.26-3.86c0-.959-.436-1.578-1.26-1.578s-1.26.62-1.26,1.578v.948c0,.958.436,1.577,1.26,1.577s1.26-.62,1.26-1.577Z" transform="translate(-1036.504 -146.337)" fill="#fff"/>
        <path id="路径_63" data-name="路径 63" d="M1080.988,148.966l-1.071,5.379c-.143.7-.331.983-1.049.983h-.317a1.041,1.041,0,0,1-1.119-.913l-.929-3.578c-.012-.047-.012-.058-.035-.058s-.025.011-.037.058l-.929,3.578a1.04,1.04,0,0,1-1.119.913h-.318c-.718,0-.906-.281-1.046-.983l-1.072-5.379v-.035a.236.236,0,0,1,.235-.235h1.142a.228.228,0,0,1,.212.211l.741,4.948c.011.1.035.162.058.162s.061-.046.082-.162l.979-3.931c.118-.456.258-.5.659-.5h.824c.4,0,.543.047.66.5l.978,3.931c.022.117.057.162.082.162s.047-.058.058-.162l.743-4.948a.226.226,0,0,1,.211-.211h1.144a.236.236,0,0,1,.235.235Z" transform="translate(-1035.371 -146.323)" fill="#fff"/>
        <path id="路径_64" data-name="路径 64" d="M1085.507,155.307h-1.082a.246.246,0,0,1-.236-.247v-3.811c0-1.018-.094-1.31-1-1.31a3,3,0,0,0-1.33.421v4.7a.247.247,0,0,1-.237.247h-1.082a.246.246,0,0,1-.235-.247v-6.115a.235.235,0,0,1,.235-.235h1.024a.236.236,0,0,1,.236.235v.244a3.072,3.072,0,0,1,1.908-.559c1.695,0,2.037,1.135,2.037,2.619v3.811A.248.248,0,0,1,1085.507,155.307Z" transform="translate(-1033.604 -146.337)" fill="#fff"/>
      </g>
      <g id="组_52" data-name="组 52">
        <g id="组_46" data-name="组 46" transform="translate(0 0.127)">
          <rect id="矩形_48" data-name="矩形 48" width="18.184" height="1.627" fill="#fff"/>
          <rect id="矩形_49" data-name="矩形 49" width="1.638" height="17.413" transform="translate(6.939 0.813)" fill="#fff"/>
          <path id="路径_65" data-name="路径 65" d="M1044.583,143.142l.034-.011-2.31-7.054a3.9,3.9,0,0,0-3.725-2.687h-4.089v1.627h4.089a2.269,2.269,0,0,1,2.166,1.562l2.15,6.563Z" transform="translate(-1026.432 -128.068)" fill="#fff"/>
        </g>
        <g id="组_47" data-name="组 47" transform="translate(22.497 0.101)">
          <rect id="矩形_50" data-name="矩形 50" width="9.703" height="1.627" transform="translate(0 1.023)" fill="#fff"/>
          <rect id="矩形_51" data-name="矩形 51" width="1.638" height="5.176" transform="translate(4.6 0.027)" fill="#fff"/>
          <path id="路径_66" data-name="路径 66" d="M1056.215,140.8h-7.641a1.765,1.765,0,0,1-1.651-2.416l1.818-4.542,1.524.6-1.551,3.869a.628.628,0,0,0,.587.86h6.913Z" transform="translate(-1046.33 -127.949)" fill="#fff"/>
          <rect id="矩形_52" data-name="矩形 52" width="9.934" height="1.627" transform="translate(0 7.285)" fill="#fff"/>
          <rect id="矩形_53" data-name="矩形 53" width="9.934" height="1.627" transform="translate(0 13.934)" fill="#fff"/>
          <rect id="矩形_54" data-name="矩形 54" width="1.638" height="8.448" transform="translate(4.6 9.806)" fill="#fff"/>
          <path id="路径_67" data-name="路径 67" d="M1055.668,132.295h-9.257v1.627h17.8v-1.627Z" transform="translate(-1046.411 -128.264)" fill="#fff"/>
          <path id="路径_68" data-name="路径 68" d="M1057.313,128.945h-1.643c.161,3.952,1.03,15.467,5.595,17.666a4.949,4.949,0,0,0,.531.188,1.835,1.835,0,0,0,.342,0v-1.52C1058.66,143.933,1057.527,133.95,1057.313,128.945Z" transform="translate(-1044.455 -128.944)" fill="#fff"/>
          <path id="路径_69" data-name="路径 69" d="M1060.7,134.747a24.81,24.81,0,0,1-5.749,7.826l.791,1.473a25.87,25.87,0,0,0,6.471-8.678Z" transform="translate(-1044.606 -127.766)" fill="#fff"/>
          <path id="路径_70" data-name="路径 70" d="M1060.584,131.872l-.393-2.927h-1.638l.393,2.927.054.257h1.638Z" transform="translate(-1043.845 -128.945)" fill="#fff"/>
        </g>
        <g id="组_48" data-name="组 48" transform="translate(66.9 0)">
          <rect id="矩形_55" data-name="矩形 55" width="6.679" height="1.627" transform="translate(0 2.391)" fill="#fff"/>
          <path id="路径_71" data-name="路径 71" d="M1085.611,128.861v18.271h1.638V128.861Z" transform="translate(-1082.53 -128.861)" fill="#fff"/>
          <path id="路径_72" data-name="路径 72" d="M1090.207,137.209l-5.5-3.37v0h-1.638v12.287h1.638V135.75l4.641,2.843Z" transform="translate(-1083.068 -127.851)" fill="#fff"/>
          <rect id="矩形_56" data-name="矩形 56" width="11.225" height="1.627" transform="translate(7.21 5.984)" fill="#fff"/>
          <rect id="矩形_57" data-name="矩形 57" width="10.2" height="1.627" transform="translate(7.99 1.181)" fill="#fff"/>
          <path id="路径_73" data-name="路径 73" d="M1094.295,134.245v7.42a2.761,2.761,0,0,1-2.767,2.747v1.627a4.392,4.392,0,0,0,4.4-4.373v-7.42Z" transform="translate(-1081.28 -127.768)" fill="#fff"/>
          <path id="路径_74" data-name="路径 74" d="M1097.706,144.277a27.751,27.751,0,0,0-1.921-7.22l1.491-.674a28.893,28.893,0,0,1,2.056,7.687Z" transform="translate(-1080.38 -127.333)" fill="#fff"/>
          <path id="路径_75" data-name="路径 75" d="M1090.836,136.654a19.524,19.524,0,0,1-2.1,6.725l1.4.842a21.278,21.278,0,0,0,2.355-7.568Z" transform="translate(-1081.871 -127.278)" fill="#fff"/>
        </g>
        <g id="组_51" data-name="组 51" transform="translate(44.729)">
          <path id="路径_76" data-name="路径 76" d="M1082.7,147.133h-17.939V128.861h13.381a4.55,4.55,0,0,1,4.558,4.529Zm-16.3-1.628h14.664V133.389a2.915,2.915,0,0,0-2.92-2.9H1066.4Z" transform="translate(-1064.765 -128.861)" fill="#fff"/>
          <g id="组_50" data-name="组 50" transform="translate(2.615 2.825)">
            <rect id="矩形_58" data-name="矩形 58" width="1.65" height="10.554" transform="translate(1.468 4.618) rotate(-71.151)" fill="#fff"/>
            <g id="组_49" data-name="组 49" transform="translate(0.626 7.683)">
              <rect id="矩形_59" data-name="矩形 59" width="1.634" height="6.831" transform="translate(2.668 1.602) rotate(-80.143)" fill="#fff"/>
              <rect id="矩形_60" data-name="矩形 60" width="1.64" height="11.076" transform="translate(0 3.614) rotate(-80.482)" fill="#fff"/>
            </g>
            <path id="路径_77" data-name="路径 77" d="M1078.366,131.908h-8.7l.386-.7h-1.869l-.839,1.52a.544.544,0,0,0,.48.806h9.457v.248a73.4,73.4,0,0,1-10.352,4.152l.458,1.563a75.56,75.56,0,0,0,11.083-4.485l.448-.225v-2.335A.545.545,0,0,0,1078.366,131.908Z" transform="translate(-1066.924 -131.209)" fill="#fff"/>
          </g>
        </g>
      </g>
    </g>
  </g>
</svg>
